<mxfile host="app.diagrams.net" modified="2023-10-30T16:34:13.548Z" agent="Mozilla/5.0 (Windows NT 10.0; Win64; x64) AppleWebKit/537.36 (KHTML, like Gecko) Chrome/118.0.0.0 Safari/537.36" etag="YXxo_9jBAiZsEbQBn_JS" version="22.0.8" type="device">
  <diagram name="Page-1" id="Pg_JO8zAuWxTsP4PuQYl">
    <mxGraphModel dx="1326" dy="699" grid="1" gridSize="10" guides="1" tooltips="1" connect="1" arrows="1" fold="1" page="1" pageScale="1" pageWidth="1100" pageHeight="850" math="0" shadow="0">
      <root>
        <mxCell id="0" />
        <mxCell id="1" parent="0" />
        <mxCell id="AeAs0B5RaLFfTGrEUbs3-12" style="edgeStyle=orthogonalEdgeStyle;rounded=0;orthogonalLoop=1;jettySize=auto;html=1;entryX=0.5;entryY=0;entryDx=0;entryDy=0;" edge="1" parent="1" source="AeAs0B5RaLFfTGrEUbs3-9" target="AeAs0B5RaLFfTGrEUbs3-10">
          <mxGeometry relative="1" as="geometry" />
        </mxCell>
        <mxCell id="AeAs0B5RaLFfTGrEUbs3-13" style="edgeStyle=orthogonalEdgeStyle;rounded=0;orthogonalLoop=1;jettySize=auto;html=1;entryX=0;entryY=0.5;entryDx=0;entryDy=0;" edge="1" parent="1" source="AeAs0B5RaLFfTGrEUbs3-9" target="AeAs0B5RaLFfTGrEUbs3-11">
          <mxGeometry relative="1" as="geometry" />
        </mxCell>
        <mxCell id="AeAs0B5RaLFfTGrEUbs3-15" style="edgeStyle=orthogonalEdgeStyle;rounded=0;orthogonalLoop=1;jettySize=auto;html=1;" edge="1" parent="1" source="AeAs0B5RaLFfTGrEUbs3-9" target="AeAs0B5RaLFfTGrEUbs3-14">
          <mxGeometry relative="1" as="geometry" />
        </mxCell>
        <mxCell id="AeAs0B5RaLFfTGrEUbs3-9" value="Account" style="rounded=1;whiteSpace=wrap;html=1;" vertex="1" parent="1">
          <mxGeometry x="490" y="30" width="120" height="60" as="geometry" />
        </mxCell>
        <mxCell id="AeAs0B5RaLFfTGrEUbs3-10" value="StyActivity" style="rounded=1;whiteSpace=wrap;html=1;" vertex="1" parent="1">
          <mxGeometry x="490" y="260" width="120" height="60" as="geometry" />
        </mxCell>
        <mxCell id="AeAs0B5RaLFfTGrEUbs3-11" value="Perms" style="rounded=1;whiteSpace=wrap;html=1;" vertex="1" parent="1">
          <mxGeometry x="740" y="30" width="120" height="60" as="geometry" />
        </mxCell>
        <mxCell id="AeAs0B5RaLFfTGrEUbs3-14" value="ID" style="rounded=1;whiteSpace=wrap;html=1;" vertex="1" parent="1">
          <mxGeometry x="270" y="30" width="120" height="60" as="geometry" />
        </mxCell>
      </root>
    </mxGraphModel>
  </diagram>
</mxfile>
